HIERARCHY
ROOT Hips
{
	OFFSET -0.179506 -22.333345 2.821913
	CHANNELS 6 Xposition Yposition Zposition Zrotation Yrotation Xrotation 
	JOINT LeftUpLeg
	{
		OFFSET 6.951974 -9.140623 -0.681533
		CHANNELS 3 Zrotation Yrotation Xrotation
		JOINT LeftLeg
		{
			OFFSET 3.427654 -37.519855 -0.449580
			CHANNELS 3 Zrotation Yrotation Xrotation
			JOINT LeftFoot
			{
				OFFSET -1.359570 -39.796059 -4.369333
				CHANNELS 3 Zrotation Yrotation Xrotation
				JOINT LeftToe
				{
					OFFSET 2.635814 -5.579078 11.928840
					CHANNELS 3 Zrotation Yrotation Xrotation
					End Site
					{
						OFFSET 0.000000 0.000000 0.000000
					}
				}
			}
		}
	}
	JOINT RightUpLeg
	{
		OFFSET -6.767048 -9.052170 -0.431982
		CHANNELS 3 Zrotation Yrotation Xrotation
		JOINT RightLeg
		{
			OFFSET -3.829005 -38.256897 -0.885003
			CHANNELS 3 Zrotation Yrotation Xrotation
			JOINT RightFoot
			{
				OFFSET 1.577377 -39.841461 -4.231180
				CHANNELS 3 Zrotation Yrotation Xrotation
				JOINT RightToe
				{
					OFFSET -2.537174 -4.814398 12.334795
					CHANNELS 3 Zrotation Yrotation Xrotation
					End Site
					{
						OFFSET 0.000000 0.000000 0.000000
					}
				}
			}
		}
	}
	JOINT Spine
	{
		OFFSET -0.253288 10.896323 -2.669631
		CHANNELS 3 Zrotation Yrotation Xrotation
		JOINT Spine1
		{
			OFFSET 0.548704 13.518043 0.109247
			CHANNELS 3 Zrotation Yrotation Xrotation
			JOINT Spine2
			{
				OFFSET 0.145701 5.292222 2.542457
				CHANNELS 3 Zrotation Yrotation Xrotation
				JOINT Neck
				{
					OFFSET -0.277840 21.387037 -4.285703
					CHANNELS 3 Zrotation Yrotation Xrotation
					JOINT Head
					{
						OFFSET 0.515184 6.496960 5.134897
						CHANNELS 3 Zrotation Yrotation Xrotation
						End Site
						{
							OFFSET 0.000000 0.000000 0.000000
						}
					}
				}
				JOINT LeftShoulder
				{
					OFFSET 7.884473 12.174932 -3.408961
					CHANNELS 3 Zrotation Yrotation Xrotation
					JOINT LeftArm
					{
						OFFSET 9.097692 3.046888 -0.886815
						CHANNELS 3 Zrotation Yrotation Xrotation
						JOINT LeftForeArm
						{
							OFFSET 25.961220 -1.277207 -2.745643
							CHANNELS 3 Zrotation Yrotation Xrotation
							JOINT LeftHand
							{
								OFFSET 24.923361 0.898606 -0.117091
								CHANNELS 3 Zrotation Yrotation Xrotation
								End Site
								{
									OFFSET 0.000000 0.000000 0.000000
								}
							}
						}
					}
				}
				JOINT RightShoulder
				{
					OFFSET -8.175920 11.883285 -3.861528
					CHANNELS 3 Zrotation Yrotation Xrotation
					JOINT RightArm
					{
						OFFSET -9.601238 3.255117 -0.914307
						CHANNELS 3 Zrotation Yrotation Xrotation
						JOINT RightForeArm
						{
							OFFSET -25.374195 -1.332924 -2.140099
							CHANNELS 3 Zrotation Yrotation Xrotation
							JOINT RightHand
							{
								OFFSET -25.529810 0.777228 -0.555919
								CHANNELS 3 Zrotation Yrotation Xrotation
								End Site
								{
									OFFSET 0.000000 0.000000 0.000000
								}
							}
						}
					}
				}
			}
		}
	}
}
MOTION
Frames: 12
Frame Time: 0.033333
-59.408298 -18.022055 84.568832 -125.168695 4.623327 81.951777 27.408388 11.192595 -24.247480 -8.938824 3.473913 45.376759 -1.900835 5.103369 -19.974832 nan nan nan -19.855314 -12.184076 -25.897159 2.624409 -13.340924 49.955866 5.918397 -0.159365 -17.601728 nan nan nan -5.706838 6.199726 16.453966 6.153161 -1.395965 13.640695 1.968060 1.753668 -1.949623 7.393724 -8.124329 22.044120 13.266571 -23.132469 0.759810 -6.202267 -5.803977 -1.236610 -60.255629 -50.266219 27.905259 150.335738 -67.605200 -122.542226 -8.264855 -18.934170 1.459282 13.148128 0.908702 -0.348926 33.763191 12.208141 -9.471690 -55.123429 33.837862 -38.997501 1.099297 5.856879 -8.976135 
-59.973598 -18.024656 84.552887 -125.193909 4.743795 81.983439 27.439121 11.542443 -24.421055 -9.030217 3.701761 46.231323 -2.132036 5.053661 -20.246384 nan nan nan -18.967870 -12.138889 -26.521163 3.455748 -13.490097 47.113710 6.130577 0.184186 -16.847398 nan nan nan -5.828862 6.328758 16.910449 6.146214 -1.221029 13.472044 2.012128 1.481058 -2.046056 7.221124 -7.723054 21.932588 13.412568 -23.187892 0.629785 -6.368151 -5.728637 -1.051483 -59.558067 -50.460244 27.532492 150.159565 -67.695995 -122.334587 -7.664822 -18.891818 1.829082 13.408030 0.955082 -0.063333 34.093857 12.397854 -9.619616 -55.168298 34.055255 -38.921643 0.345953 5.664502 -8.829002 
-60.520905 -18.011381 84.530960 -125.056120 4.835588 82.004318 27.500848 11.614219 -24.546722 -9.141591 4.002193 46.882894 -2.223855 5.015545 -20.523467 nan nan nan -18.222784 -11.950754 -26.958965 4.308218 -13.554949 44.180604 6.473378 0.550288 -15.569206 nan nan nan -6.100930 6.457848 17.205975 6.216231 -1.188016 13.580763 2.070178 1.308549 -2.157666 7.183484 -7.339840 21.667663 13.569999 -23.304179 0.573148 -6.391677 -5.693623 -0.821949 -59.181625 -50.794594 27.405807 149.464972 -67.792175 -121.860617 -7.269249 -18.865262 2.531762 13.762073 1.007807 0.196400 34.273352 12.507535 -9.630646 -55.193995 34.219468 -39.028646 -0.010854 5.557581 -8.671998 
-61.089417 -17.975866 84.505066 -124.779808 4.905644 82.005196 27.562912 11.555262 -24.580153 -9.224199 4.356276 47.367129 -2.165682 4.826227 -20.847176 nan nan nan -17.642847 -11.681922 -27.197386 5.137132 -13.553034 41.220085 6.638529 0.934943 -13.779954 nan nan nan -6.418721 6.479363 17.506081 6.299241 -1.265215 13.660656 2.103099 1.267956 -2.264380 7.170240 -7.025004 21.462744 13.708675 -23.431423 0.535202 -6.342737 -5.627267 -0.663085 -59.202078 -51.032474 27.542530 148.245441 -67.738919 -121.066549 -7.488218 -18.989213 2.367792 14.087047 1.024513 0.416091 34.510582 12.611551 -9.544323 -55.235363 34.352429 -39.197956 0.299108 5.484852 -8.357735 
-61.652332 -17.919081 84.502281 -124.480141 4.926303 81.915273 27.605014 11.520098 -24.501278 -9.342795 4.735259 47.845634 -2.126956 4.608946 -21.115276 nan nan nan -17.115868 -11.476391 -27.382617 5.727095 -13.071925 38.863685 5.939743 1.493383 -11.827969 nan nan nan -6.761874 6.495487 18.013443 6.350367 -1.362872 13.546909 2.095720 1.327382 -2.400068 7.286671 -6.771508 21.428211 13.793970 -23.605891 0.425445 -6.246173 -5.595934 -0.389885 -59.214764 -51.273781 27.628292 147.234748 -67.674418 -120.295897 -7.588872 -19.000848 1.923227 14.364959 0.930661 0.621782 34.923408 12.808609 -9.519811 -55.271537 34.389500 -39.103477 0.774674 5.411438 -7.758094 
-62.190975 -17.827229 84.499199 -124.126459 5.019319 81.875318 27.672861 11.608210 -24.494453 -9.509825 4.975462 48.309545 -2.107456 4.437521 -21.368808 nan nan nan -16.534428 -11.240059 -27.552101 6.198540 -12.605334 36.765467 5.261013 1.568199 -9.859173 nan nan nan -7.113467 6.513009 18.337865 6.456709 -1.473780 13.588932 2.162128 1.386721 -2.608145 7.445404 -6.578182 21.437803 13.808494 -23.736945 0.383630 -6.238505 -5.729788 -0.065646 -58.931417 -51.404095 27.470971 146.767921 -67.673933 -119.709079 -7.118837 -18.831514 1.903812 14.566296 0.957839 0.806816 35.360963 12.869383 -9.490079 -55.363970 34.248465 -39.293732 0.903534 5.562532 -8.108970 
-62.730225 -17.707428 84.473686 -123.569580 5.176182 81.900363 27.688542 11.780682 -24.637362 -9.636433 5.126078 48.783067 -2.096479 4.211386 -21.724613 nan nan nan -15.988803 -11.119159 -27.743077 6.235067 -12.447922 35.363804 4.719793 1.153243 -7.952771 nan nan nan -7.417700 6.443435 18.426979 6.621759 -1.643325 13.769475 2.280613 1.366432 -2.752478 7.580831 -6.433857 21.500605 13.778739 -23.876093 0.282184 -6.247729 -5.864006 0.144863 -58.811368 -51.418751 27.402644 146.309883 -67.745143 -119.253317 -6.624106 -18.725332 1.915275 14.731385 1.079624 0.968841 35.689057 12.754231 -9.399043 -55.377603 34.073923 -39.725951 1.097422 6.026274 -8.952322 
-63.258820 -17.564079 84.439781 -122.835838 5.285258 81.893432 27.599007 11.905663 -24.779287 -9.709763 5.294972 49.201146 -2.035234 3.999917 -22.184182 nan nan nan -15.615744 -11.247634 -27.973510 5.835486 -12.529359 34.914559 4.329607 0.663832 -6.235264 nan nan nan -7.786700 6.295897 18.496211 6.773033 -1.890563 13.938262 2.390178 1.357674 -2.765095 7.784400 -6.273116 21.585052 13.831084 -23.970504 0.034621 -6.152829 -5.811140 0.102320 -59.191394 -51.410168 27.801282 145.732793 -67.990063 -118.946271 -6.118925 -18.678621 2.220558 14.943827 1.127305 1.016518 35.983266 12.631647 -9.159112 -55.194557 33.851953 -39.912536 1.487792 6.674832 -9.193903 
-63.765656 -17.393686 84.406403 -122.020173 5.335833 81.857914 27.421490 11.967332 -24.829624 -9.860450 5.321188 49.440553 -1.841561 3.929113 -22.686729 nan nan nan -15.429985 -11.511528 -28.230356 5.224053 -12.712858 35.233974 4.371117 0.078505 -5.231841 nan nan nan -8.136705 6.182202 18.488762 6.869111 -2.156395 14.206113 2.417496 1.302995 -2.706146 7.977488 -6.312309 21.500363 13.953289 -23.988894 0.008748 -6.051476 -5.764615 0.048217 -59.339355 -51.587773 28.038573 145.513975 -68.323121 -118.797179 -5.455346 -18.402373 2.549638 15.206604 1.041000 0.909564 36.372474 12.649605 -8.824383 -54.906871 33.839166 -39.706029 0.984669 6.573277 -9.390565 
-64.308014 -17.187103 84.368668 -121.033046 5.386843 81.763599 27.114413 12.004233 -24.865927 -10.032319 5.091386 49.662858 -1.535948 3.971619 -23.207181 nan nan nan -15.351022 -11.896557 -28.346817 4.546934 -12.730466 36.105964 4.395398 -0.622562 -5.173440 nan nan nan -8.292668 6.096525 18.478821 6.889666 -2.479606 14.529811 2.369940 1.120076 -2.692920 8.021835 -6.523547 21.447352 14.153446 -23.945021 0.171547 -5.962968 -5.884487 0.161227 -59.023864 -51.886093 27.746679 145.278831 -68.531828 -118.310083 -5.311492 -18.188691 2.455920 15.485389 0.904530 0.768768 36.905973 12.749677 -8.492756 -54.727431 33.963093 -39.047315 0.053413 5.946169 -9.545158 
-64.870422 -16.955971 84.337448 -119.938334 5.505777 81.602142 26.862345 11.934790 -24.845078 -10.238364 4.781568 49.869353 -1.352161 4.045856 -23.753734 nan nan nan -15.442399 -12.101186 -28.184498 3.891168 -12.931358 37.193387 4.148862 -1.171362 -5.587551 nan nan nan -8.355232 5.983100 18.653081 6.929869 -2.755521 14.587408 2.411036 0.857125 -2.670943 8.097231 -6.614324 21.665754 14.370457 -23.883705 0.163527 -5.942115 -6.072747 0.262475 -58.926432 -52.021817 27.472720 144.885284 -68.711032 -117.795433 -5.836398 -18.213978 2.693543 15.686730 0.879095 0.654894 37.356177 12.495558 -8.263724 -54.619480 33.983607 -38.323742 0.356298 5.913077 -9.043953 
-65.422401 -16.724827 84.307579 -118.852831 5.670538 81.405028 26.705055 11.793370 -24.755111 -10.500699 4.414674 50.059327 -1.179423 4.115841 -24.244921 nan nan nan -15.677410 -12.245576 -27.848431 3.386254 -13.202189 38.426610 3.941519 -1.654575 -6.170593 nan nan nan -8.383513 5.874262 18.797471 7.000533 -2.992582 14.519063 2.512373 0.614757 -2.452219 8.139952 -6.795389 21.924475 14.457226 -23.838363 0.191536 -6.099304 -6.311954 0.365138 -58.763695 -52.127651 27.227899 144.736885 -69.056286 -117.766827 -5.947735 -18.309969 3.031018 15.846005 1.009663 0.558665 37.737830 12.086767 -8.249154 -54.569232 33.904365 -37.902873 0.936860 6.149352 -8.510531 
